HIERARCHY
ROOT pelvis
{
  OFFSET 0 100 0
  CHANNELS 6 Xposition Yposition Zposition Zrotation Xrotation Yrotation
  JOINT pelvis_right_femur
  {
    OFFSET -10.78128 -3.44521 -0.5502486
    CHANNELS 3 Zrotation Xrotation Yrotation
    JOINT right_femur_tibia
    {
      OFFSET -0.8047443 -44.0398 -0.1307829
      CHANNELS 3 Zrotation Xrotation Yrotation
      JOINT right_tibia_foot
      {
        OFFSET 3.006224 -47.83518 -5
        CHANNELS 3 Zrotation Xrotation Yrotation
        End Site
        {
          OFFSET 0 -5 15
        }
      }
    }
  }
  JOINT pelvis_left_femur
  {
    OFFSET 10.78128 -3.44521 -0.5502486
    CHANNELS 3 Zrotation Xrotation Yrotation
    JOINT left_femur_tibia
    {
      OFFSET 0.8047443 -44.0398 -0.1307829
      CHANNELS 3 Zrotation Xrotation Yrotation
      JOINT left_tibia_foot
      {
        OFFSET -4.370144 -48.10324 -4.275266
        CHANNELS 3 Zrotation Xrotation Yrotation
        End Site
        {
          OFFSET 0 -5 15
        }
      }
    }
  }
  JOINT pelvis_spine1
  {
    OFFSET 0 6.468898 -3.129235
    CHANNELS 3 Zrotation Xrotation Yrotation
    JOINT spine1
    {
      OFFSET 0 23.15396 4.99043
      CHANNELS 3 Zrotation Xrotation Yrotation
      JOINT spine2
      {
        OFFSET 0 20.79997 -5.064912
        CHANNELS 3 Zrotation Xrotation Yrotation
        JOINT neck
        {
          OFFSET 0 14.38658 9.616178
          CHANNELS 3 Zrotation Xrotation Yrotation
          End Site
          {
            OFFSET 0 20 0
          }
        }
      }
      JOINT right_manubrium
      {
        OFFSET -5.722621 16.35077 3.967754
        CHANNELS 3 Zrotation Xrotation Yrotation
        JOINT right_clavicle
        {
          OFFSET -13.16364 1.694482 -4.693211
          CHANNELS 3 Zrotation Xrotation Yrotation
          JOINT right_humerus
          {
            OFFSET -28.5034 -0.3100689 -2.792744
            CHANNELS 3 Zrotation Xrotation Yrotation
            JOINT right_radius
            {
              OFFSET -25.15693 0.02248979 -1.271978
              CHANNELS 3 Zrotation Xrotation Yrotation
              End Site
              {
                OFFSET -15 0 0
              }
            }
          }
        }
      }
      JOINT left_manubrium
      {
        OFFSET 5.722621 16.35077 3.967754
        CHANNELS 3 Zrotation Xrotation Yrotation
        JOINT left_clavicle
        {
          OFFSET 13.16364 1.694482 -4.693211
          CHANNELS 3 Zrotation Xrotation Yrotation
          JOINT left_humerus
          {
            OFFSET 29.39168 -1.063119 -2.237045
            CHANNELS 3 Zrotation Xrotation Yrotation
            JOINT left_radius
            {
              OFFSET 24.59957 -0.9528479 0.9047498
              CHANNELS 3 Zrotation Xrotation Yrotation
              End Site
              {
                OFFSET 15 -0 -0
              }
            }
          }
        }
      }
    }
  }
}
MOTION
Frames: 9
Frame Time: 0.0416666666667
-795.435 102.1756 2833.277 -4.83544 -7.264583 -43.92688 -0.1715832 13.9159 0.1740279 -0 46.81928 -0 -8.176821 11.05019 0.2972938 -5.340679 -9.118301 -9.471818 -0 18.88349 -0 -1.163621 -9.888265 19.84063 1.99787 -0.09583518 9.30386 0.6944813 12.57161 -6.627403 2.631502 18.87368 -0.7914664 -5.185426 -26.76859 6.932895 -16.69347 -35.42354 7.007003 103.3818 25.99135 -10.83068 -0 0 28.60142 -11.4756 6.42894 9.073417 -5.180416 -16.68733 -3.835114 -88.28418 13.21114 40.34817 0 0 -23.6827 -2.165696 4.826514 15.24472
-799.1286 103.7002 2838.342 -5.208295 -7.530604 -43.1259 -0.0240013 7.874042 -0.1482099 -0 51.23031 -0 -8.834354 13.40144 -0.1086777 -5.752792 -4.614201 -9.794534 -0 18.91203 -0 -0.5685229 -11.12399 19.57689 2.022541 0.1892939 9.351123 0.7321286 11.85954 -6.634879 2.728175 18.8709 -0.7285791 -5.327539 -27.35968 7.127787 -18.1127 -34.84458 6.414681 105.1073 27.12879 -11.95449 -0 0 26.79488 -10.56963 4.741323 8.816962 -5.596228 -16.68464 -3.656636 -86.66921 13.2134 39.30431 0 0 -27.68635 -2.492674 3.598946 16.28616
-802.4783 104.9514 2842.959 -5.577225 -7.397618 -42.2937 0.4285231 0.9445982 -0.5595462 -0 51.21046 -0 -9.19997 13.08157 -0.698146 -5.678192 -0.2585936 -9.960496 -0 17.24782 -0 -0.4990795 -12.7534 19.03443 2.061064 0.4329218 9.372958 0.788172 11.06041 -6.671868 2.831148 18.86087 -0.6271745 -5.424107 -27.96296 7.338114 -19.55582 -34.12014 5.856948 106.9207 28.26463 -13.31014 -0 0 24.76103 -9.721129 2.901013 8.496894 -5.87842 -16.80352 -3.470417 -84.81759 13.11273 37.87958 0 0 -32.11235 -2.622053 2.457364 17.01102
-805.5649 105.6363 2847.21 -5.685288 -6.946089 -41.53035 0.8576728 -5.931005 -1.140875 -0 46.53431 -0 -9.220615 10.78394 -1.327556 -5.414796 3.690511 -10.07093 -0 14.73508 -0 -0.9367534 -14.7983 18.15245 2.111306 0.604128 9.354993 0.8657923 10.2453 -6.75269 2.925192 18.83886 -0.4762653 -5.453006 -28.53618 7.558283 -20.87059 -33.31359 5.405511 108.6503 29.26703 -14.81187 -0 0 22.68096 -9.015815 1.066505 8.094468 -5.958169 -17.06515 -3.295875 -82.87514 12.88261 36.1144 0 0 -36.59726 -2.487458 1.549134 17.2215
-808.5345 105.6336 2851.236 -5.352082 -6.303033 -40.88041 1.011544 -12.08647 -1.912953 -0 38.33408 -0 -8.90375 7.566777 -1.873439 -5.233527 7.124071 -10.14311 -0 12.34554 -0 -1.49565 -17.02822 17.01798 2.16443 0.6909459 9.282102 0.9677555 9.496858 -6.88893 2.991613 18.80697 -0.2611368 -5.398318 -29.05209 7.788243 -21.91523 -32.50455 5.118954 110.1314 30.02592 -16.34996 -0 0 20.73135 -8.510507 -0.6061295 7.592142 -5.799888 -17.47135 -3.154364 -81.00832 12.51904 34.08938 0 0 -40.76068 -2.046281 0.982703 16.77319
-811.5409 104.9884 2855.196 -4.575996 -5.587237 -40.34978 0.8496348 -17.22837 -2.797419 -0 28.48875 -0 -8.31855 4.486398 -2.27077 -5.268495 10.02993 -10.10271 -0 10.82676 -0 -1.659515 -19.06199 15.88107 2.206051 0.7018327 9.145122 1.094137 8.885239 -7.082245 3.014831 18.77265 0.02756135 -5.256437 -29.49879 8.029597 -22.59481 -31.76632 5.024265 111.2439 30.48704 -17.81015 -0 0 19.04637 -8.221158 -1.995158 6.995033 -5.415755 -17.9968 -3.060176 -79.3668 12.04991 31.92188 0 0 -44.29025 -1.29927 0.7864353 15.64073
-814.7196 103.8646 2859.242 -3.55537 -4.909321 -39.92159 0.5498852 -21.2717 -3.634114 -0 18.97331 -0 -7.631227 2.412679 -2.514486 -5.497452 12.45399 -9.846306 -0 10.65482 -0 -1.138886 -20.52133 15.02794 2.220827 0.6584774 8.945609 1.240975 8.450804 -7.321404 2.987849 18.74618 0.3855814 -5.037747 -29.87305 8.279961 -22.87759 -31.14596 5.113558 111.9355 30.65991 -19.09704 -0 0 17.69626 -8.12807 -3.03165 6.339791 -4.860366 -18.59329 -3.015947 -78.05381 11.52947 29.74975 0 0 -46.99141 -0.295457 0.9084498 13.93291
-818.1819 102.4893 2863.499 -2.608626 -4.361496 -39.56537 0.4190501 -24.16321 -4.217333 -0 11.37778 -0 -7.075609 1.806085 -2.658078 -5.776791 14.45599 -9.337412 -0 12.0938 -0 -0.1267493 -21.13203 14.57625 2.19845 0.5855203 8.696172 1.400352 8.201721 -7.585502 2.913644 18.73794 0.7932181 -4.763296 -30.17329 8.529892 -22.78883 -30.6585 5.354147 112.2202 30.59795 -20.15043 -0 0 16.68975 -8.192591 -3.700017 5.683789 -4.210065 -19.20393 -3.015291 -77.11573 11.02113 27.70784 0 0 -48.79173 0.8787264 1.253341 11.85183
-822.0051 101.1136 2868.038 -2.032777 -3.984744 -39.25598 0.763679 -25.80129 -4.332806 -0 6.648654 -0 -6.853315 2.525775 -2.785701 -5.908842 16.02803 -8.660424 -0 15.26448 -0 0.7943211 -20.74042 14.39873 2.137482 0.502991 8.41694 1.561582 8.123626 -7.850431 2.802655 18.75629 1.219995 -4.458932 -30.39614 8.763872 -22.39103 -30.29524 5.703077 112.1578 30.3676 -20.94698 -0 0 15.99438 -8.374658 -4.024597 5.084862 -3.540234 -19.77837 -3.049168 -76.55109 10.57966 25.90874 0 0 -49.71222 2.120255 1.727173 9.627163
